<?xml version="1.0" standalone="no"?>
<!DOCTYPE svg PUBLIC "-//W3C//DTD SVG 1.1//EN" "http://www.w3.org/Graphics/SVG/1.1/DTD/svg11.dtd" >
<svg xmlns="http://www.w3.org/2000/svg">
<metadata>
Created by FontPrep 20130207 at Sun Mar 30 18:02:17 2014
 By Rami Jegham
Futura is a registered trademark of Fundicion Tipografica Neufville S. A.
</metadata>
<defs>
<font id="432ca5434a2dd715580d888c804aa2b7" horiz-adv-x='1024' >
  <font-face 
    font-family="FuturaLT-Book"
    font-weight="400"
    font-stretch="normal"
    units-per-em="2048"
    panose-1="2 0 5 3 0 0 0 0 0 0"
    ascent="1638"
    descent="-410"
    x-height="963"
    cap-height="1544"
    bbox="-330 -600 2412 2060"
    underline-thickness="102"
    underline-position="-205"
    unicode-range="U+0020-FFFD"
  />
<missing-glyph horiz-adv-x="630" 
 />
    <glyph glyph-name=".notdef" unicode="&#xfffd;" horiz-adv-x="630" 
 />
    <glyph glyph-name=".null" horiz-adv-x="0" 
 />
    <glyph glyph-name="nonmarkingreturn" horiz-adv-x="681" 
 />
    <glyph glyph-name="space" unicode=" " horiz-adv-x="630" 
 />
    <glyph glyph-name="exclam" unicode="!" horiz-adv-x="692" 
d="M262 313v1231h168v-1231h-168zM346 203q47 0 81 -33t34 -80t-34 -82t-81 -35t-81 35t-34 82t34 80t81 33z" />
    <glyph glyph-name="quotedbl" unicode="&#x22;" horiz-adv-x="935" 
d="M535 1544h192l-37 -672h-119zM209 1544h192l-36 -672h-119z" />
    <glyph glyph-name="numbersign" unicode="#" 
d="M545 967l-60 -351h252l60 351h-252zM1171 1126v-159h-215l-59 -351h207v-159h-236l-82 -457h-155l80 457h-252l-86 -457h-154l80 457h-209v159h236l59 351h-219v159h244l73 418h158l-74 -418h254l72 418h162l-72 -418h188z" />
    <glyph glyph-name="dollar" unicode="$" 
d="M231 1171q1 157 103 261t260 127v210h135v-210q101 -13 189 -77t135 -157l-135 -88q-78 137 -189 158v-506q286 -120 352 -279q29 -70 29 -157q0 -170 -108 -299t-273 -164v-226h-135v213q-164 8 -289 121t-153 277l165 47q15 -109 93 -191t184 -90v625
q-269 111 -334 258q-29 66 -29 147zM594 948v449q-82 -16 -136 -82t-55 -150q1 -131 191 -217zM938 449q0 156 -209 256v-549q96 33 153 111q56 79 56 182z" />
    <glyph glyph-name="percent" unicode="%" horiz-adv-x="1632" 
d="M1225 516q-85 0 -149 -60t-64 -146t63 -145q63 -61 149 -61t150 60t64 146t-64 146t-149 60zM1225 647q141 0 242 -98q101 -99 101 -239t-100 -238q-102 -98 -243 -98t-243 96q-102 98 -101 239q0 141 101 240q102 98 243 98zM1223 1571l82 -49l-893 -1549l-88 54z
M410 1440q-86 0 -150 -60t-63 -146q0 -85 63 -145q64 -61 150 -61t149 60t63 146t-62 146q-64 60 -150 60zM410 1571q141 0 242 -98q102 -99 102 -239t-102 -238t-242 -99q-141 0 -243 97q-101 96 -101 238t101 241q102 98 243 98z" />
    <glyph glyph-name="ampersand" unicode="&#x26;" horiz-adv-x="1423" 
d="M248 408q0 -111 82 -195t190 -84q72 0 154 40t125 74t123 103l-344 442l-74 -49q-82 -55 -124 -89t-87 -102t-45 -140zM530 -27q-182 0 -316 121t-134 314t165 336q79 68 214 159l18 12q-30 46 -40 57q-9 11 -23 33q-14 21 -20 31q-70 102 -70 207q0 145 96 237t236 91
q140 0 237 -86q96 -86 96 -219t-90 -226q-49 -52 -80 -78t-102 -79l325 -416l175 203l124 -103l-196 -229l262 -338h-217l-166 217q-272 -244 -494 -244zM656 1425q-72 0 -120 -49t-48 -114t36 -124q37 -58 58 -79l36 -51q144 96 175 150q32 54 32 117t-49 107t-120 43z" />
    <glyph glyph-name="quotesingle" unicode="'" horiz-adv-x="591" 
d="M201 1544h192l-37 -672h-118z" />
    <glyph glyph-name="parenleft" unicode="(" horiz-adv-x="587" 
d="M358 561q0 -549 164 -983l-145 -70q-186 397 -187 1053q1 656 187 1053l145 -70q-164 -434 -164 -983z" />
    <glyph glyph-name="parenright" unicode=")" horiz-adv-x="587" 
d="M397 562q0 -656 -186 -1054l-145 70q164 434 163 983q1 549 -163 983l145 70q186 -396 186 -1052z" />
    <glyph glyph-name="asterisk" unicode="*" horiz-adv-x="1212" 
d="M543 1257l-13 287h154l-12 -287l270 101l49 -148l-278 -77l178 -226l-125 -92l-160 242l-160 -242l-124 92l180 226l-279 77l49 148z" />
    <glyph glyph-name="plus" unicode="+" 
d="M551 1020h160v-416h415v-160h-415v-415h-160v415h-416v160h416v416z" />
    <glyph glyph-name="comma" unicode="," horiz-adv-x="630" 
d="M309 225l152 -53l-232 -524l-110 45z" />
    <glyph glyph-name="hyphenminus" unicode="-" horiz-adv-x="425" 
d="M4 569h420v-151h-420v151z" />
    <glyph glyph-name="period" unicode="." horiz-adv-x="630" 
d="M315 203q47 0 81 -33t34 -80t-34 -82t-81 -35t-81 35t-33 82q0 47 33 80q34 33 81 33z" />
    <glyph glyph-name="slash" unicode="/" horiz-adv-x="1167" 
d="M995 1690l135 -62l-960 -1950l-133 62z" />
    <glyph glyph-name="zero" unicode="0" 
d="M631 1411q-102 0 -181 -70q-132 -117 -184 -398t68 -574q41 -102 119 -169t178 -67t178 67t119 169q162 402 5 797q-42 105 -121 175t-181 70zM631 1571q139 0 250 -79t174 -204q129 -256 129 -536t-144 -523q-68 -115 -176 -185t-234 -71q-126 0 -234 71
q-198 130 -280 440q-38 140 -38 276t33 270q33 133 96 258t174 204t250 79z" />
    <glyph glyph-name="one" unicode="1" 
d="M580 1384h-256l90 160h338v-1544h-172v1384z" />
    <glyph glyph-name="two" unicode="2" 
d="M1083 160v-160h-999l723 854q104 125 104 255t-90 216t-222 86t-217 -90t-89 -227h-172q4 205 139 341t336 136t344 -130q143 -129 143 -323t-116 -330l-535 -628h651z" />
    <glyph glyph-name="three" unicode="3" 
d="M860 1134q0 130 -75 204t-191 73q-116 0 -182 -68t-76 -180h-170q18 188 130 298t299 110t312 -117t125 -305q0 -103 -53 -197t-145 -141q108 -49 164 -151t57 -228q1 -201 -139 -330t-336 -129t-328 119q-133 119 -135 309h168q6 -117 92 -193t209 -75q123 0 210 90
t87 226t-91 211q-92 75 -237 71v160q141 6 223 60q82 53 82 183z" />
    <glyph glyph-name="four" unicode="4" 
d="M803 410v698h-4l-486 -698h490zM975 410h190v-160h-190v-250h-172v250h-791l959 1380h4v-1220z" />
    <glyph glyph-name="five" unicode="5" 
d="M1071 1384h-493l-101 -329l92 8q225 0 369 -156q144 -157 145 -389t-163 -388t-404 -157q-152 0 -274 73t-199 204l137 98q52 -96 144 -155t198 -60q170 0 280 113q110 112 110 278t-111 273q-111 106 -263 106t-305 -98l224 739h614v-160z" />
    <glyph glyph-name="six" unicode="6" 
d="M623 133q150 1 255 107t105 257t-105 254t-256 103t-255 -103q-105 -103 -105 -254t106 -257t255 -107zM655 1014q209 0 355 -150t145 -366q0 -216 -157 -370q-158 -155 -376 -155t-375 156t-157 373q0 174 141 370l512 699l129 -96l-356 -480l4 -4q63 23 135 23z" />
    <glyph glyph-name="seven" unicode="7" 
d="M104 1384v160h1139l-1036 -1571l-135 80l876 1331h-844z" />
    <glyph glyph-name="eight" unicode="8" 
d="M631 1411q-111 0 -190 -78q-79 -77 -79 -189t79 -191t190 -79t189 79t79 191q-1 112 -79 190t-189 77zM631 1571q182 0 307 -123t125 -307q0 -101 -50 -195t-139 -143q106 -49 166 -149t62 -222q0 -199 -135 -329t-336 -130t-336 130t-135 329q0 121 60 221t167 150
q-88 49 -138 142t-50 196q0 184 125 307t307 123zM631 727q-125 0 -212 -87t-87 -210t87 -210t212 -87t212 87t87 210t-87 210t-212 87z" />
    <glyph glyph-name="nine" unicode="9" 
d="M625 1411q-150 0 -255 -105q-106 -105 -106 -255t104 -253q104 -104 256 -104q151 0 256 104t105 253q0 150 -105 255t-255 105zM592 535q-211 -1 -355 149q-145 150 -145 364t157 369q157 154 376 154t375 -154t157 -373q0 -172 -143 -370l-512 -701l-129 88l356 490
l-4 4q-68 -20 -133 -20z" />
    <glyph glyph-name="colon" unicode=":" horiz-adv-x="630" 
d="M315 989q47 0 81 -33q34 -34 34 -80t-34 -81t-81 -35t-81 35t-33 82q-1 47 33 79t81 33zM315 203q47 0 81 -33t34 -80t-34 -82t-81 -35t-81 35t-33 82q0 47 33 80q34 33 81 33z" />
    <glyph glyph-name="semicolon" unicode=";" horiz-adv-x="630" 
d="M367 989q47 0 81 -33q34 -34 33 -80q0 -46 -34 -81q-35 -35 -81 -35t-80 35t-34 82t34 79t81 33zM313 225l152 -53l-232 -524l-110 45z" />
    <glyph glyph-name="less" unicode="&#x3c;" 
d="M1126 1020v-174l-753 -322l753 -321v-174l-991 424v143z" />
    <glyph glyph-name="equal" unicode="=" 
d="M135 444h991v-159h-991v159zM135 764h991v-160h-991v160z" />
    <glyph glyph-name="greater" unicode="&#x3e;" 
d="M135 846v174l991 -424v-143l-991 -424v174l754 321z" />
    <glyph glyph-name="question" unicode="?" horiz-adv-x="999" 
d="M496 203q47 0 81 -33q33 -33 33 -80t-34 -82t-80 -35q-47 0 -81 35t-34 82t34 80t81 33zM666 672h165q4 -150 -91 -252t-240 -102q-144 0 -240 96t-96 230t74 206t212 116t177 70q78 54 78 156q1 102 -59 162t-149 59q-89 0 -147 -58t-57 -145q0 -49 12 -98h-170l-8 109
q0 156 110 253q111 97 267 97q156 1 262 -105t106 -280t-135 -278q-51 -38 -112 -57q-61 -18 -69 -22q-9 -4 -37 -12t-30 -8q-158 -43 -157 -170q0 -70 49 -117t125 -47q76 1 118 57t42 140z" />
    <glyph glyph-name="at" unicode="@" horiz-adv-x="1638" 
d="M1182 463q74 0 152 125t85 266q14 262 -148 416q-163 154 -428 154t-443 -186q-178 -185 -179 -471q1 -286 191 -466t462 -180t402 94l143 -104q-266 -137 -551 -138q-334 1 -564 229t-230 569t226 570t556 230q285 0 481 -176q229 -199 229 -466t-126 -433
q-70 -92 -154 -136t-162 -41q-92 4 -110 125q-124 -125 -270 -125t-249 111t-104 264q0 193 117 338t301 146q161 -1 272 -144l29 125h145l-102 -522q-18 -51 -17 -113t46 -61zM535 717q0 -117 58 -186t173 -69q116 0 182 87q66 86 81 211t-43 202q-58 76 -171 76t-197 -102
t-83 -219z" />
    <glyph glyph-name="A" unicode="A" horiz-adv-x="1431" 
d="M979 598l-258 619l-264 -619h522zM1047 438h-660l-186 -438h-189l713 1618l694 -1618h-190z" />
    <glyph glyph-name="B" unicode="B" horiz-adv-x="1163" 
d="M328 1384v-520h65q162 0 252 41q109 50 109 215q0 166 -87 215t-272 49h-67zM156 0v1544h254q231 0 373 -98q143 -98 143 -310t-152 -311q135 -33 214 -143t79 -252q0 -218 -154 -324t-399 -106h-358zM328 717v-557h172q395 0 395 282q0 274 -418 275h-149z" />
    <glyph glyph-name="C" unicode="C" horiz-adv-x="1468" 
d="M870 1411q-264 0 -447 -190q-183 -191 -183 -449t184 -448t444 -190t465 204v-213q-209 -152 -461 -152q-328 1 -566 233t-238 562t236 566t568 237q258 0 461 -152v-213q-199 205 -463 205z" />
    <glyph glyph-name="D" unicode="D" horiz-adv-x="1388" 
d="M328 160h125q157 0 273 34t214 125q193 180 193 460t-201 456q-98 88 -212 119t-267 30h-125v-1224zM156 0v1544h290q193 0 334 -39t269 -147q256 -222 256 -580t-252 -583q-129 -115 -269 -155t-342 -40h-286z" />
    <glyph glyph-name="E" unicode="E" horiz-adv-x="1093" 
d="M156 0v1544h800v-160h-628v-458h610v-160h-610v-606h628v-160h-800z" />
    <glyph glyph-name="F" unicode="F" horiz-adv-x="978" 
d="M858 1384h-530v-458h514v-160h-514v-766h-172v1544h702v-160z" />
    <glyph glyph-name="G" unicode="G" horiz-adv-x="1679" 
d="M948 776h643q3 -176 -29 -303t-133 -246t-254 -187t-315 -67q-326 1 -560 235t-234 563t236 565t568 235q397 0 654 -334l-125 -117q-207 291 -531 291q-262 0 -446 -190q-184 -191 -184 -449t180 -442q88 -88 205 -142t233 -55q211 0 381 138t170 345h-459v160z" />
    <glyph glyph-name="H" unicode="H" horiz-adv-x="1462" 
d="M336 918h790v626h172v-1544h-172v758h-790v-758h-172v1544h172v-626z" />
    <glyph glyph-name="I" unicode="I" horiz-adv-x="489" 
d="M332 1544v-1544h-172v1544h172z" />
    <glyph glyph-name="J" unicode="J" horiz-adv-x="643" 
d="M483 1544v-1222q0 -82 -3 -128q-9 -145 -74 -227q-96 -127 -267 -127q-139 0 -274 115l96 133q94 -88 181 -88t122 63q36 63 41 125q6 62 6 134v1222h172z" />
    <glyph glyph-name="K" unicode="K" horiz-adv-x="1251" 
d="M328 0h-172v1544h172v-661l657 661h232l-725 -719l749 -825h-237l-633 709l-43 -43v-666z" />
    <glyph glyph-name="L" unicode="L" horiz-adv-x="768" 
d="M328 1544v-1384h426v-160h-598v1544h172z" />
    <glyph glyph-name="M" unicode="M" horiz-adv-x="1835" 
d="M43 0l313 1632l562 -1296l563 1296l313 -1632h-176l-199 1044h-4l-497 -1107l-496 1107h-4l-199 -1044h-176z" />
    <glyph glyph-name="N" unicode="N" horiz-adv-x="1708" 
d="M166 0v1610l1204 -1262v1196h172v-1614l-1204 1260v-1190h-172z" />
    <glyph glyph-name="O" unicode="O" horiz-adv-x="1765" 
d="M883 1411q-265 0 -449 -187q-184 -186 -184 -450t185 -452t447 -188t448 188t186 451t-184 451t-449 187zM883 1571q333 -1 569 -235t236 -566t-237 -564t-569 -232t-568 232q-237 232 -236 564q0 332 236 566t569 235z" />
    <glyph glyph-name="P" unicode="P" horiz-adv-x="1030" 
d="M328 1384v-548h114q352 0 353 278q0 201 -177 247q-87 23 -227 23h-63zM328 676v-676h-172v1544h254q127 0 217 -14t170 -70t125 -150q45 -93 45 -200q0 -209 -148 -332q-125 -102 -366 -102h-125z" />
    <glyph glyph-name="Q" unicode="Q" horiz-adv-x="1765" 
d="M883 -27q-332 1 -569 233t-236 564q0 332 236 566q237 234 570 234q332 0 568 -236q236 -237 236 -555t-224 -558l232 -235h-219l-129 139q-94 -72 -220 -112t-245 -40zM1516 779q0 257 -184 445t-449 187q-265 0 -449 -187q-184 -186 -184 -450t185 -452t448 -189
q193 0 344 115l-373 375h225l267 -279q170 178 170 435z" />
    <glyph glyph-name="R" unicode="R" horiz-adv-x="1110" 
d="M328 678v-678h-172v1544h223q409 0 520 -214q45 -87 45 -212q0 -178 -104 -295t-283 -131l492 -692h-211l-467 678h-43zM328 1384v-555h53q284 0 359 134q32 57 32 137q0 212 -166 260q-83 24 -227 24h-51z" />
    <glyph glyph-name="S" unicode="S" horiz-adv-x="1144" 
d="M590 1411q-104 0 -180 -68t-76 -169t84 -157q64 -45 157 -87l103 -45q162 -72 266 -164q105 -93 105 -282q1 -189 -141 -327t-336 -138t-323 109q-130 110 -167 290l168 47q16 -121 102 -204t210 -83t219 87t95 199t-56 181q-48 58 -228 141l-94 41q-164 74 -250 160
t-86 248t127 272t305 109q130 -1 234 -63t165 -177l-137 -88q-96 168 -266 168z" />
    <glyph glyph-name="T" unicode="T" horiz-adv-x="962" 
d="M565 1384v-1384h-172v1384h-373v160h922v-160h-377z" />
    <glyph glyph-name="U" unicode="U" horiz-adv-x="1402" 
d="M324 1544v-919q0 -88 1 -125t17 -106q35 -152 185 -221q87 -40 173 -40t169 37q150 67 190 206q22 76 22 193v975h172v-966q1 -148 -25 -244t-110 -184q-164 -176 -409 -176t-406 157q-92 89 -122 191t-29 256v966h172z" />
    <glyph glyph-name="V" unicode="V" horiz-adv-x="1277" 
d="M199 1544l440 -1177l440 1177h187l-627 -1636l-627 1636h187z" />
    <glyph glyph-name="W" unicode="W" horiz-adv-x="2234" 
d="M213 1544l405 -1157l500 1237l500 -1237l405 1157h187l-592 -1624l-500 1243l-500 -1243l-591 1624h186z" />
    <glyph glyph-name="X" unicode="X" horiz-adv-x="1155" 
d="M483 799l-417 745h196l316 -581l315 581h197l-418 -745l456 -799h-196l-354 635l-355 -635h-196z" />
    <glyph glyph-name="Y" unicode="Y" horiz-adv-x="1214" 
d="M694 0h-172v664l-506 880h199l393 -688l393 688h199l-506 -880v-664z" />
    <glyph glyph-name="Z" unicode="Z" horiz-adv-x="1200" 
d="M1135 160v-160h-1106l841 1384h-735v160h1022l-844 -1384h822z" />
    <glyph glyph-name="bracketleft" unicode="[" horiz-adv-x="645" 
d="M381 1462v-1802h221v-152h-389v2106h389v-152h-221z" />
    <glyph glyph-name="backslash" unicode="\" horiz-adv-x="1167" 
d="M37 1628l135 62l958 -1690l-133 -61z" />
    <glyph glyph-name="bracketright" unicode="]" horiz-adv-x="645" 
d="M264 -340v1802h-221v152h389v-2106h-389v152h221z" />
    <glyph glyph-name="asciicircum" unicode="^" 
d="M135 659l422 885h148l421 -885h-182l-313 672l-318 -672h-178z" />
    <glyph glyph-name="underscore" unicode="_" horiz-adv-x="1024" 
d="M1024 -154v-102h-1024v102h1024z" />
    <glyph glyph-name="grave" unicode="`" horiz-adv-x="733" 
d="M160 1446l172 78l243 -336l-102 -58z" />
    <glyph glyph-name="a" unicode="a" horiz-adv-x="1181" 
d="M1034 963v-963h-164v133h-4q-124 -160 -330 -160t-334 150q-128 149 -128 359t127 358t333 149q206 0 332 -164h4v138h164zM879 487q-1 151 -89 251t-230 100t-230 -102t-88 -248t85 -255t233 -109t234 106q85 105 85 257z" />
    <glyph glyph-name="b" unicode="b" horiz-adv-x="1181" 
d="M147 0v1690h164v-865h4q125 164 332 164t334 -148q127 -149 127 -359t-128 -360t-337 -149q-209 0 -328 160h-4v-133h-164zM940 487q0 151 -88 251t-231 100q-142 0 -230 -102t-88 -248t85 -255q86 -109 234 -109t233 106q85 105 85 257z" />
    <glyph glyph-name="c" unicode="c" horiz-adv-x="974" 
d="M870 676h-4q-127 162 -299 162q-145 0 -242 -104t-97 -252t91 -252q92 -104 240 -105q186 0 313 166h5v-219q-145 -98 -306 -99q-219 -1 -365 145t-146 361t150 363q151 148 363 147q162 0 297 -96v-217z" />
    <glyph glyph-name="d" unicode="d" horiz-adv-x="1181" 
d="M870 0v133h-4q-124 -160 -330 -160t-334 150q-128 149 -128 359t127 358t334 149q207 0 331 -164h4v865h164v-1690h-164zM879 487q-1 151 -89 251t-230 100t-230 -102t-88 -248t85 -255t233 -109t234 106q85 105 85 257z" />
    <glyph glyph-name="e" unicode="e" horiz-adv-x="1062" 
d="M539 838q-107 0 -193 -74t-100 -178h575q-16 106 -96 179t-186 73zM553 125q182 0 293 199l139 -80q-145 -270 -444 -271q-211 1 -341 143t-130 359t125 365t345 149q220 0 342 -159t111 -384h-755q2 -135 90 -228t225 -93z" />
    <glyph glyph-name="f" unicode="f" horiz-adv-x="561" 
d="M334 811v-811h-164v811h-90v152h90v383q0 180 43 249q76 121 248 121q51 0 117 -20v-166q-155 53 -216 -21q-24 -27 -26 -92q-2 -64 -2 -129v-325h244v-152h-244z" />
    <glyph glyph-name="g" unicode="g" horiz-adv-x="1187" 
d="M1024 963v-916q0 -100 -3 -152t-26 -127t-69 -135q-133 -170 -373 -170q-205 0 -337 121t-136 322h164q2 -131 88 -211t219 -80q181 0 250 122q59 104 59 281v115h-4q-57 -76 -146 -118t-188 -42q-205 -1 -332 147t-127 358q-1 210 129 361t336 151t328 -165h4v138h164z
M868 487q0 151 -88 251t-230 100t-230 -102t-89 -248q0 -146 85 -255t234 -109q150 0 234 106q84 105 84 257z" />
    <glyph glyph-name="h" unicode="h" horiz-adv-x="1081" 
d="M156 1690h163v-840l5 -4q104 143 281 143q177 -1 249 -113t72 -305v-571h-164v543q0 133 -24 191t-67 81q-44 23 -111 23q-180 0 -221 -174q-18 -76 -20 -207v-457h-163v1690z" />
    <glyph glyph-name="i" unicode="i" horiz-adv-x="536" 
d="M268 1442q47 0 82 -35t35 -83t-35 -82t-82 -34t-82 34q-34 34 -34 82t34 83q35 35 82 35zM350 963v-963h-164v963h164z" />
    <glyph glyph-name="j" unicode="j" horiz-adv-x="536" 
d="M268 1442q47 0 82 -35t35 -83t-35 -82t-82 -34t-82 34q-34 34 -34 82t34 83q35 35 82 35zM350 963v-1504h-164v1504h164z" />
    <glyph glyph-name="k" unicode="k" horiz-adv-x="962" 
d="M311 1690v-1084l351 357h219l-412 -410l489 -553h-217l-387 438l-43 -43v-395h-164v1690h164z" />
    <glyph glyph-name="l" unicode="l" horiz-adv-x="464" 
d="M315 1690v-1690h-163v1690h163z" />
    <glyph glyph-name="m" unicode="m" horiz-adv-x="1572" 
d="M319 963v-105h5q84 131 231 131q86 0 157 -43t109 -117q41 78 120 119t169 41q307 0 307 -403v-586h-164v559q0 206 -78 255q-38 24 -102 24q-129 0 -171 -111q-32 -89 -34 -217v-510h-163v547q0 291 -173 291q-136 0 -179 -117q-32 -93 -34 -223v-498h-163v963h163z" />
    <glyph glyph-name="n" unicode="n" horiz-adv-x="1081" 
d="M319 963v-117h5q104 143 281 143q177 -1 249 -113t72 -305v-571h-164v543q0 133 -24 191t-67 81q-44 23 -111 23q-180 0 -221 -174q-18 -76 -20 -207v-457h-163v963h163z" />
    <glyph glyph-name="o" unicode="o" horiz-adv-x="1150" 
d="M575 838q-149 0 -245 -104t-96 -253q0 -150 96 -253t246 -103t245 103q96 103 97 253q0 149 -96 253t-247 104zM575 -27q-211 -1 -358 147t-147 360t147 360t358 149q211 0 359 -148q148 -149 147 -361q1 -212 -147 -360t-359 -147z" />
    <glyph glyph-name="p" unicode="p" horiz-adv-x="1181" 
d="M311 963v-138h4q123 164 330 164q207 -1 335 -151t128 -361t-126 -357t-336 -146t-331 161h-4v-676h-164v1504h164zM940 487q0 151 -88 251t-231 100q-142 0 -230 -102t-88 -248t85 -255q86 -109 234 -109t233 106q85 105 85 257z" />
    <glyph glyph-name="q" unicode="q" horiz-adv-x="1181" 
d="M1034 963v-1504h-164v676h-4q-120 -162 -330 -162q-210 1 -336 147t-126 356t127 362t335 152t330 -165h4v138h164zM879 487q-1 151 -89 251t-230 100t-230 -102t-88 -248t85 -255t233 -109t234 106q85 105 85 257z" />
    <glyph glyph-name="r" unicode="r" horiz-adv-x="686" 
d="M311 963v-105h4q51 68 95 100t116 31q70 0 150 -45l-78 -149q-63 43 -98 43q-188 0 -189 -357v-481h-164v963h164z" />
    <glyph glyph-name="s" unicode="s" horiz-adv-x="817" 
d="M413 838q-44 0 -81 -31t-37 -74q1 -43 21 -61t31 -28t38 -23t39 -19t47 -20q145 -58 207 -121t63 -186q0 -123 -95 -213t-223 -89q-128 0 -218 65t-129 179l145 62q35 -76 78 -115t115 -39t116 41t43 103q0 105 -153 166q-62 25 -126 55t-110 86t-45 141q0 119 84 195
t203 77q82 0 152 -50t104 -128l-137 -72q-18 41 -53 70t-79 29z" />
    <glyph glyph-name="t" unicode="t" horiz-adv-x="491" 
d="M328 811v-811h-164v811h-101v152h101v346h164v-346h172v-152h-172z" />
    <glyph glyph-name="u" unicode="u" horiz-adv-x="1048" 
d="M307 963v-537q0 -178 53 -239t164 -62q159 0 198 126q19 61 19 175v537h164v-555q0 -434 -381 -435q-381 0 -381 435v555h164z" />
    <glyph glyph-name="v" unicode="v" horiz-adv-x="948" 
d="M188 963l287 -648l287 648h184l-471 -1026l-473 1026h186z" />
    <glyph glyph-name="w" unicode="w" horiz-adv-x="1556" 
d="M193 963l284 -652l299 725l301 -725l287 652h186l-477 -1031l-297 717l-297 -717l-473 1031h187z" />
    <glyph glyph-name="x" unicode="x" horiz-adv-x="1019" 
d="M412 512l-351 451h201l252 -328l252 328h205l-353 -451l400 -512h-199l-305 391l-307 -391h-205z" />
    <glyph glyph-name="y" unicode="y" horiz-adv-x="1019" 
d="M438 90l-442 873h190l340 -691l312 691h186l-711 -1504h-186z" />
    <glyph glyph-name="z" unicode="z" horiz-adv-x="1062" 
d="M1016 152v-152h-996l695 811h-565v152h894l-692 -811h664z" />
    <glyph glyph-name="braceleft" unicode="{" horiz-adv-x="684" 
d="M258 954v383q0 115 60 196t114 81h150v-152h-82q-27 0 -42 -9q-32 -19 -32 -146v-387q0 -173 -69 -266q-49 -68 -87 -93q25 -14 55 -46q29 -32 65 -119t36 -195v-385q0 -129 32 -147q15 -9 42 -9h82v-152h-150q-53 0 -114 81q-60 81 -60 196v381q0 152 -29 226t-125 104
v131q96 31 125 103t29 224z" />
    <glyph glyph-name="bar" unicode="|" horiz-adv-x="1167" 
d="M664 1610v-2048h-160v2048h160z" />
    <glyph glyph-name="braceright" unicode="}" horiz-adv-x="684" 
d="M426 166v-381q0 -115 -60 -196t-114 -81h-150v152h82q27 0 42 9q28 17 31 81q1 20 1 66v385q0 210 119 329q20 20 37 31q-25 14 -55 46t-65 118q-36 86 -36 195v387q0 128 -32 146q-15 9 -42 9h-82v152h150q54 0 114 -81t60 -196v-383q0 -152 29 -224t125 -103v-131
q-96 -31 -125 -105t-29 -225z" />
    <glyph glyph-name="asciitilde" unicode="~" 
d="M420 711q84 0 223 -93q18 -12 52 -36q108 -74 148 -74t79 56t65 143l139 -58q-102 -301 -284 -301q-77 0 -246 115q-25 16 -36 23l-55 35t-85 28q-83 0 -144 -197l-141 58q109 301 285 301z" />
    <glyph glyph-name="nbspace" unicode="&#xa0;" horiz-adv-x="630" 
 />
    <glyph glyph-name="exclamdown" unicode="&#xa1;" horiz-adv-x="692" 
d="M430 649v-1231h-168v1231h168zM346 989q47 0 81 -33q34 -34 34 -80t-34 -81t-81 -35t-81 35t-34 82t34 79t81 33z" />
    <glyph glyph-name="cent" unicode="&#xa2;" 
d="M362 788q0 -124 72 -224t191 -126v699q-117 -23 -190 -124t-73 -225zM1006 985h-5q-106 135 -241 156v-705q143 20 246 164h4v-219q-133 -88 -250 -96v-230h-135v232q-179 21 -305 165t-126 332t121 334q121 147 310 170v217h135v-213q133 -12 246 -90v-217z" />
    <glyph glyph-name="sterling" unicode="&#xa3;" 
d="M166 549v131h205l-39 76q-131 229 -131 377q0 186 134 312q133 126 327 126t318 -132t126 -331l-168 -45q-2 147 -69 245t-197 99q-130 0 -212 -80q-83 -80 -83 -198t111 -314q52 -90 71 -135h291v-131h-246q14 -53 14 -92q0 -104 -67 -221q14 -7 134 -49t177 -43t100 41
q42 42 82 112l140 -84q-47 -102 -129 -170q-83 -68 -177 -68q-94 -1 -262 59t-223 60q-111 0 -184 -125l-133 90q121 197 299 199q66 92 65 191q0 55 -14 100h-260z" />
    <glyph glyph-name="currency" unicode="&#xa4;" 
d="M805 133q125 0 196 25q57 16 168 90v-185q-152 -88 -358 -88q-287 0 -453 164t-213 432h-147l33 111h100q-2 27 -2 84v43h-131l33 111h108q39 285 209 468t463 183q244 0 399 -131l-41 -154q-95 74 -165 100t-203 25q-211 0 -333 -139t-157 -352h762l-35 -111h-737v-37
q0 -29 4 -90h701l-35 -111h-649q39 -195 153 -307q125 -131 330 -131z" />
    <glyph glyph-name="yen" unicode="&#xa5;" 
d="M545 0v524h-486v131h486l-113 205h-373v131h297l-317 553h199l393 -684l393 684h199l-318 -553h297v-131h-373l-112 -205h485v-131h-485v-524h-172z" />
    <glyph glyph-name="brokenbar" unicode="&#xa6;" horiz-adv-x="1167" 
d="M664 1354v-512h-160v512h160zM664 330v-512h-160v512h160z" />
    <glyph glyph-name="section" unicode="&#xa7;" horiz-adv-x="1212" 
d="M381 8q0 -110 51 -174q50 -64 154 -64t159 54q55 53 55 158t-76 154q-56 38 -114 59q-223 84 -276 131q-125 98 -125 270q0 115 56 203t159 131q-180 90 -180 289q0 156 113 254q114 98 274 98q84 0 166 -37q195 -88 200 -365h-163q-12 244 -205 244q-93 0 -155 -56
t-62 -151q0 -60 16 -84t26 -38t34 -29q22 -13 34 -23t43 -22t44 -18t50 -17q159 -52 252 -132t93 -251q0 -217 -216 -328q180 -92 181 -299q0 -162 -108 -257t-273 -95q-357 0 -373 395h166zM606 823q-94 1 -160 -65t-66 -160t66 -161t160 -67t161 68q67 66 67 160t-67 160
t-161 65z" />
    <glyph glyph-name="dieresis" unicode="&#xa8;" horiz-adv-x="956" 
d="M680 1444q45 0 78 -32t33 -79t-33 -79t-78 -32t-78 32t-33 79t33 79t78 32zM276 1444q47 0 79 -32t32 -79t-32 -79t-79 -32q-46 0 -78 32t-32 79t32 79t78 32z" />
    <glyph glyph-name="copyright" unicode="&#xa9;" horiz-adv-x="1638" 
d="M848 1116q-156 0 -238 -100t-82 -240t87 -236q87 -97 237 -98q205 0 250 187h125q-19 -141 -125 -225t-250 -85q-199 1 -323 133q-123 132 -123 330t120 328q121 129 324 129q142 0 246 -81t131 -222h-125q-18 84 -86 132t-168 48zM819 96q276 0 478 198t202 478
t-202 478t-478 198t-478 -198t-202 -478t202 -478t478 -198zM819 -27q-336 1 -569 233t-234 566q0 334 234 566t569 232t569 -232t234 -566t-234 -566t-569 -233z" />
    <glyph glyph-name="ordfeminine" unicode="&#xaa;" horiz-adv-x="708" 
d="M668 1554v-577h-107v80h-4q-80 -96 -214 -96t-217 89t-83 216t82 216t216 89t216 -98h4v81h107zM565 1268q-1 92 -57 152t-149 61q-93 -1 -151 -63t-58 -149t56 -153t152 -66t152 64q55 62 55 154z" />
    <glyph glyph-name="guillemotleft" unicode="&#xab;" horiz-adv-x="1024" 
d="M260 492l277 -340l-109 -84l-344 424l344 436l109 -86zM608 492l277 -340l-109 -84l-344 424l344 436l109 -86z" />
    <glyph glyph-name="logicalnot" unicode="&#xac;" 
d="M967 211v393h-832v160h991v-553h-159z" />
    <glyph glyph-name="registered" unicode="&#xae;" horiz-adv-x="1638" 
d="M643 866h148q8 0 49 -1t93 2t73 13q20 9 43 21q39 20 41 84q0 106 -213 107h-234v-226zM643 743v-403h-123v874h381q311 0 311 -232t-276 -239l264 -403h-147l-262 403h-148zM819 96q276 0 478 198t202 478t-202 478t-478 198t-478 -198t-202 -478t202 -478t478 -198z
M819 -27q-336 1 -569 233t-234 566q0 334 234 566t569 232t569 -232t234 -566t-234 -566t-569 -233z" />
    <glyph glyph-name="macron" unicode="&#xaf;" horiz-adv-x="1021" 
d="M162 1397h700v-140h-700v140z" />
    <glyph glyph-name="degree" unicode="&#xb0;" horiz-adv-x="819" 
d="M408 1055q88 1 149 61t61 147t-61 148t-148 61t-149 -60q-62 -62 -60 -149q1 -87 61 -147q59 -60 147 -61zM717 1263q0 -126 -90 -216q-90 -91 -217 -91t-217 90t-91 218q-2 127 89 217t219 90t217 -91q90 -91 90 -217z" />
    <glyph glyph-name="plusminus" unicode="&#xb1;" 
d="M135 0v160h991v-160h-991zM551 1020h160v-313h415v-160h-415v-314h-160v314h-416v160h416v313z" />
    <glyph glyph-name="twosuperior" unicode="&#xb2;" horiz-adv-x="755" 
d="M702 735v-106h-649l469 512q58 63 58 147t-54 130t-139 46q-86 0 -136 -49t-50 -131h-123q4 123 91 205t220 82t223 -77t90 -199t-65 -193l-338 -367h403z" />
    <glyph glyph-name="threesuperior" unicode="&#xb3;" horiz-adv-x="755" 
d="M358 1169q82 0 135 38q52 38 52 107q0 70 -50 110t-114 40q-137 0 -154 -137h-123q12 113 84 179t195 65q123 0 204 -71t81 -183q0 -63 -35 -119t-94 -84q71 -29 107 -90t36 -137q0 -129 -86 -202t-218 -73t-217 72t-87 184h123q0 -70 50 -110t130 -39q80 0 131 49
t51 127t-55 125q-56 47 -146 43v106z" />
    <glyph glyph-name="acute" unicode="&#xb4;" horiz-adv-x="733" 
d="M403 1524l172 -78l-313 -316l-102 58z" />
    <glyph glyph-name="paragraph" unicode="&#xb6;" horiz-adv-x="1212" 
d="M1094 1544v-133h-119v-1724h-133v1724h-166v-1724h-133v893q-176 0 -292 116t-130 317q-14 199 116 365t324 166h533z" />
    <glyph glyph-name="periodcentered" unicode="&#xb7;" horiz-adv-x="630" 
d="M315 637q47 0 81 -33t34 -80t-34 -82q-34 -34 -81 -34t-81 34t-33 82q0 47 33 80q34 33 81 33z" />
    <glyph glyph-name="cedilla" unicode="&#xb8;" horiz-adv-x="665" 
d="M508 -109l-234 -299l-114 58l196 303z" />
    <glyph glyph-name="onesuperior" unicode="&#xb9;" horiz-adv-x="755" 
d="M399 1448h-166l60 106h229v-925h-123v819z" />
    <glyph glyph-name="ordmasculine" unicode="&#xba;" horiz-adv-x="690" 
d="M346 1481q-96 -1 -160 -63t-63 -152q0 -90 63 -152q64 -62 160 -63q96 0 160 62q63 63 63 153q1 90 -63 152t-160 63zM346 961q-137 0 -233 88t-97 215q0 127 96 217t234 90t234 -90t96 -217t-96 -215t-234 -88z" />
    <glyph glyph-name="guillemotright" unicode="&#xbb;" horiz-adv-x="1024" 
d="M487 152l277 340l-277 350l109 86l344 -436l-344 -424zM139 152l277 340l-277 350l109 86l344 -436l-344 -424z" />
    <glyph glyph-name="onequarter" unicode="&#xbc;" horiz-adv-x="1892" 
d="M1327 1571l90 -49l-899 -1549l-90 50zM1442 256v389h-4l-291 -389h295zM1565 256h123v-106h-123v-150h-123v150h-502l625 829v-723zM371 1448h-166l59 106h230v-925h-123v819z" />
    <glyph glyph-name="onehalf" unicode="&#xbd;" horiz-adv-x="1892" 
d="M1235 1571l90 -49l-899 -1549l-90 50zM1688 106v-106h-650l469 512q57 64 57 148t-52 130q-54 46 -140 46t-136 -50t-50 -131h-123q4 123 91 205t220 82t223 -77q91 -77 91 -199t-66 -193l-338 -367h404zM371 1448h-166l59 106h230v-925h-123v819z" />
    <glyph glyph-name="threequarters" unicode="&#xbe;" horiz-adv-x="1892" 
d="M449 1169q82 0 134 38t52 107q0 70 -50 110t-114 40q-137 0 -154 -137h-122q12 113 84 179q73 66 195 65q122 0 203 -71t81 -183q0 -63 -35 -119t-94 -84q71 -29 107 -90t36 -137q0 -129 -86 -202t-218 -73t-217 72t-87 184h123q0 -70 50 -110t130 -39q80 0 131 49
t51 127t-55 125t-145 43v106zM1446 1571l90 -49l-899 -1549l-90 50zM1483 256v389h-4l-291 -389h295zM1606 256h123v-106h-123v-150h-123v150h-502l625 829v-723z" />
    <glyph glyph-name="questiondown" unicode="&#xbf;" horiz-adv-x="999" 
d="M504 989q47 0 81 -34q33 -34 33 -81q0 -46 -34 -80t-80 -34q-47 0 -81 34t-34 80t34 81q34 34 81 34zM334 299h-166q-4 150 91 252t241 102t240 -96q96 -97 96 -231t-74 -206t-212 -115q-138 -44 -177 -71q-78 -55 -78 -156q0 -100 59 -160q58 -60 148 -60t147 58t58 144
q0 49 -13 99h170l8 -109q0 -156 -110 -253t-266 -97t-263 105q-106 105 -106 271q0 238 225 335q20 8 53 18t63 22q30 11 42 11q158 43 158 170q0 70 -50 117t-124 47q-76 0 -118 -56t-42 -141z" />
    <glyph glyph-name="Agrave" unicode="&#xc0;" horiz-adv-x="1431" 
d="M428 1976l172 78l244 -336l-103 -57zM979 598l-258 619l-264 -619h522zM1047 438h-660l-186 -438h-189l713 1618l694 -1618h-190z" />
    <glyph glyph-name="Aacute" unicode="&#xc1;" horiz-adv-x="1431" 
d="M836 2054l172 -78l-314 -315l-102 57zM979 598l-258 619l-264 -619h522zM1047 438h-660l-186 -438h-189l713 1618l694 -1618h-190z" />
    <glyph glyph-name="Acircumflex" unicode="&#xc2;" horiz-adv-x="1431" 
d="M395 1767l320 273l323 -273l-118 -92l-205 174l-203 -174zM979 598l-258 619l-264 -619h522zM1047 438h-660l-186 -438h-189l713 1618l694 -1618h-190z" />
    <glyph glyph-name="Atilde" unicode="&#xc3;" horiz-adv-x="1431" 
d="M864 1882q61 0 115 98l96 -77q-29 -72 -87 -119t-122 -47t-163 46q-101 46 -141 46q-40 -1 -62 -25t-41 -69l-101 80q92 162 209 161q72 0 166 -47q106 -47 131 -47zM979 598l-258 619l-264 -619h522zM1047 438h-660l-186 -438h-189l713 1618l694 -1618h-190z" />
    <glyph glyph-name="Adieresis" unicode="&#xc4;" horiz-adv-x="1431" 
d="M918 1974q46 0 78 -32t32 -78q0 -45 -33 -78t-77 -33t-78 33q-33 33 -33 78q0 46 33 78t78 32zM514 1974q47 0 79 -32t32 -78q0 -45 -32 -78t-79 -33t-79 33t-32 78q0 46 32 78t79 32zM979 598l-258 619l-264 -619h522zM1047 438h-660l-186 -438h-189l713 1618l694 -1618
h-190z" />
    <glyph glyph-name="Aring" unicode="&#xc5;" horiz-adv-x="1431" 
d="M719 1763q39 0 67 29t29 69q-1 41 -29 69t-68 28t-69 -29t-29 -67t30 -69q30 -30 69 -30zM719 2060q82 0 140 -58q59 -58 59 -141t-58 -141t-142 -59q-83 0 -141 58q-59 57 -59 141t60 142t141 58zM979 598l-258 619l-264 -619h522zM1047 438h-660l-186 -438h-189
l713 1618l694 -1618h-190z" />
    <glyph glyph-name="AE" unicode="&#xc6;" horiz-adv-x="2048" 
d="M975 594l-254 608l-262 -608h516zM1044 434h-659l-182 -434h-191l688 1544h678l70 -160h-625l193 -460h608l72 -160h-611l252 -604h627l68 -160h-805z" />
    <glyph glyph-name="Ccedilla" unicode="&#xc7;" horiz-adv-x="1468" 
d="M909 -109l-233 -299l-115 58l197 303zM870 1411q-264 0 -447 -190q-183 -191 -183 -449t184 -448t444 -190t465 204v-213q-209 -152 -461 -152q-328 1 -566 233t-238 562t236 566t568 237q258 0 461 -152v-213q-199 205 -463 205z" />
    <glyph glyph-name="Egrave" unicode="&#xc8;" horiz-adv-x="1093" 
d="M289 1976l172 78l244 -336l-103 -57zM156 0v1544h800v-160h-628v-458h610v-160h-610v-606h628v-160h-800z" />
    <glyph glyph-name="Eacute" unicode="&#xc9;" horiz-adv-x="1093" 
d="M666 2054l172 -78l-314 -315l-102 57zM156 0v1544h800v-160h-628v-458h610v-160h-610v-606h628v-160h-800z" />
    <glyph glyph-name="Ecircumflex" unicode="&#xca;" horiz-adv-x="1093" 
d="M225 1767l320 273l323 -273l-118 -92l-205 174l-203 -174zM156 0v1544h800v-160h-628v-458h610v-160h-610v-606h628v-160h-800z" />
    <glyph glyph-name="Edieresis" unicode="&#xcb;" horiz-adv-x="1093" 
d="M750 1974q46 0 78 -32t32 -78q0 -45 -33 -78t-77 -33t-78 33q-33 33 -33 78q0 46 33 78t78 32zM346 1974q47 0 79 -32t32 -78q0 -45 -32 -78t-79 -33t-79 33t-31 78q0 45 31 78q32 32 79 32zM156 0v1544h800v-160h-628v-458h610v-160h-610v-606h628v-160h-800z" />
    <glyph glyph-name="Igrave" unicode="&#xcc;" horiz-adv-x="489" 
d="M-12 1976l172 78l243 -336l-102 -57zM332 1544v-1544h-172v1544h172z" />
    <glyph glyph-name="Iacute" unicode="&#xcd;" horiz-adv-x="489" 
d="M334 2054l172 -78l-313 -315l-103 57zM332 1544v-1544h-172v1544h172z" />
    <glyph glyph-name="Icircumflex" unicode="&#xce;" horiz-adv-x="489" 
d="M-76 1767l320 273l323 -273l-118 -92l-205 174l-203 -174zM332 1544v-1544h-172v1544h172z" />
    <glyph glyph-name="Idieresis" unicode="&#xcf;" horiz-adv-x="489" 
d="M446 1974q45 0 78 -32t33 -78q0 -45 -33 -78t-78 -33q-46 0 -78 33t-32 78q0 46 32 78t78 32zM43 1974q47 0 79 -32t32 -78q0 -45 -32 -78t-79 -33t-79 33t-32 78q0 46 32 78t79 32zM332 1544v-1544h-172v1544h172z" />
    <glyph glyph-name="Eth" unicode="&#xd0;" horiz-adv-x="1388" 
d="M328 160h125q157 0 273 34t214 125q193 180 193 460t-201 456q-98 88 -212 119t-267 30h-125v-479h274v-147h-274v-598zM156 0v758h-156v147h156v639h290q193 0 334 -39t269 -147q256 -222 256 -580t-252 -583q-129 -115 -269 -155t-342 -40h-286z" />
    <glyph glyph-name="Ntilde" unicode="&#xd1;" horiz-adv-x="1708" 
d="M1001 1882q61 0 115 98l96 -77q-29 -72 -87 -119q-57 -47 -121 -47t-164 46t-140 46q-40 -1 -62 -25t-42 -69l-100 80q92 162 209 161q72 0 165 -47q106 -47 131 -47zM166 0v1610l1204 -1262v1196h172v-1614l-1204 1260v-1190h-172z" />
    <glyph glyph-name="Ograve" unicode="&#xd2;" horiz-adv-x="1765" 
d="M594 1976l172 78l244 -336l-103 -57zM883 1411q-265 0 -449 -187q-184 -186 -184 -450t185 -452t447 -188t448 188t186 451t-184 451t-449 187zM883 1571q333 -1 569 -235t236 -566t-237 -564t-569 -232t-568 232q-237 232 -236 564q0 332 236 566t569 235z" />
    <glyph glyph-name="Oacute" unicode="&#xd3;" horiz-adv-x="1765" 
d="M1001 2054l173 -78l-314 -315l-102 57zM883 1411q-265 0 -449 -187q-184 -186 -184 -450t185 -452t447 -188t448 188t186 451t-184 451t-449 187zM883 1571q333 -1 569 -235t236 -566t-237 -564t-569 -232t-568 232q-237 232 -236 564q0 332 236 566t569 235z" />
    <glyph glyph-name="Ocircumflex" unicode="&#xd4;" horiz-adv-x="1765" 
d="M561 1767l320 273l323 -273l-119 -92l-204 174l-203 -174zM883 1411q-265 0 -449 -187q-184 -186 -184 -450t185 -452t447 -188t448 188t186 451t-184 451t-449 187zM883 1571q333 -1 569 -235t236 -566t-237 -564t-569 -232t-568 232q-237 232 -236 564q0 332 236 566
t569 235z" />
    <glyph glyph-name="Otilde" unicode="&#xd5;" horiz-adv-x="1765" 
d="M1030 1882q61 0 115 98l96 -77q-29 -72 -87 -119t-122 -47t-164 46t-140 46q-40 -1 -62 -25t-41 -69l-101 80q92 162 209 161q72 0 166 -47q106 -47 131 -47zM883 1411q-265 0 -449 -187q-184 -186 -184 -450t185 -452t447 -188t448 188t186 451t-184 451t-449 187z
M883 1571q333 -1 569 -235t236 -566t-237 -564t-569 -232t-568 232q-237 232 -236 564q0 332 236 566t569 235z" />
    <glyph glyph-name="Odieresis" unicode="&#xd6;" horiz-adv-x="1765" 
d="M1085 1974q45 0 78 -32t33 -78q0 -45 -33 -78t-78 -33t-77 33t-33 78q1 46 33 78t77 32zM682 1974q47 0 79 -32t32 -78q0 -45 -32 -78t-79 -33t-79 33t-32 78q0 46 32 78t79 32zM883 1411q-265 0 -449 -187q-184 -186 -184 -450t185 -452t447 -188t448 188t186 451
t-184 451t-449 187zM883 1571q333 -1 569 -235t236 -566t-237 -564t-569 -232t-568 232q-237 232 -236 564q0 332 236 566t569 235z" />
    <glyph glyph-name="multiply" unicode="&#xd7;" 
d="M135 907l113 113l383 -383l381 383l114 -113l-383 -383l383 -383l-114 -112l-381 383l-383 -383l-113 112l383 383z" />
    <glyph glyph-name="Oslash" unicode="&#xd8;" horiz-adv-x="1765" 
d="M78 770q0 332 236 566q237 234 569 235q291 0 514 -187l188 187l94 -92l-188 -187q197 -222 197 -538t-237 -548t-550 -232t-541 190l-184 -184l-90 96l182 182q-190 219 -190 512zM883 133q262 1 447 189t186 450q-1 228 -142 404l-895 -893q176 -150 404 -150z
M883 1411q-265 0 -449 -187t-184 -452q0 -221 137 -395l895 893q-170 141 -399 141z" />
    <glyph glyph-name="Ugrave" unicode="&#xd9;" horiz-adv-x="1402" 
d="M414 1976l172 78l243 -336l-102 -57zM324 1544v-919q0 -88 1 -125t17 -106q35 -152 185 -221q87 -40 173 -40t169 37q150 67 190 206q22 76 22 193v975h172v-966q1 -148 -25 -244t-110 -184q-164 -176 -409 -176t-406 157q-92 89 -122 191t-29 256v966h172z" />
    <glyph glyph-name="Uacute" unicode="&#xda;" horiz-adv-x="1402" 
d="M821 2054l172 -78l-313 -315l-102 57zM324 1544v-919q0 -88 1 -125t17 -106q35 -152 185 -221q87 -40 173 -40t169 37q150 67 190 206q22 76 22 193v975h172v-966q1 -148 -25 -244t-110 -184q-164 -176 -409 -176t-406 157q-92 89 -122 191t-29 256v966h172z" />
    <glyph glyph-name="Ucircumflex" unicode="&#xdb;" horiz-adv-x="1402" 
d="M381 1767l319 273l324 -273l-119 -92l-205 174l-202 -174zM324 1544v-919q0 -88 1 -125t17 -106q35 -152 185 -221q87 -40 173 -40t169 37q150 67 190 206q22 76 22 193v975h172v-966q1 -148 -25 -244t-110 -184q-164 -176 -409 -176t-406 157q-92 89 -122 191t-29 256
v966h172z" />
    <glyph glyph-name="Udieresis" unicode="&#xdc;" horiz-adv-x="1402" 
d="M903 1974q47 0 79 -32t32 -78q0 -45 -32 -78t-79 -33t-79 33t-31 78q0 45 31 78q32 32 79 32zM500 1974q45 0 78 -32q32 -32 32 -78q0 -45 -32 -78t-78 -33q-45 0 -78 33t-33 78q0 46 33 78t78 32zM324 1544v-919q0 -88 1 -125t17 -106q35 -152 185 -221q87 -40 173 -40
t169 37q150 67 190 206q22 76 22 193v975h172v-966q1 -148 -25 -244t-110 -184q-164 -176 -409 -176t-406 157q-92 89 -122 191t-29 256v966h172z" />
    <glyph glyph-name="Yacute" unicode="&#xdd;" horiz-adv-x="1214" 
d="M768 2054l172 -78l-313 -315l-103 57zM694 0h-172v664l-506 880h199l393 -688l393 688h199l-506 -880v-664z" />
    <glyph glyph-name="Thorn" unicode="&#xde;" horiz-adv-x="1030" 
d="M328 1098v-549h114q352 0 353 278q0 201 -177 247q-91 24 -227 24h-63zM328 389v-389h-172v1544h172v-287h82q127 0 217 -14t170 -70q80 -55 125 -149t45 -201q0 -209 -148 -331q-125 -102 -366 -103h-125z" />
    <glyph glyph-name="germandbls" unicode="&#xdf;" horiz-adv-x="1181" 
d="M147 0v811h-90v152h90v294q0 215 80 316q55 71 143 107t183 36q170 0 284 -108t113 -277q0 -94 -45 -176t-127 -123q146 -51 238 -191t92 -302q0 -236 -175 -399t-413 -167v152q176 10 298 128t122 292q0 88 -39 169t-106 134q-98 76 -275 90v152q117 -2 192 66
q74 68 74 176q0 107 -67 170q-68 62 -154 62q-180 1 -227 -122q-27 -66 -27 -260v-1182h-164z" />
    <glyph glyph-name="agrave" unicode="&#xe0;" horiz-adv-x="1181" 
d="M303 1446l172 78l244 -336l-103 -58zM1034 963v-963h-164v133h-4q-124 -160 -330 -160t-334 150q-128 149 -128 359t127 358t333 149q206 0 332 -164h4v138h164zM879 487q-1 151 -89 251t-230 100t-230 -102t-88 -248t85 -255t233 -109t234 106q85 105 85 257z" />
    <glyph glyph-name="aacute" unicode="&#xe1;" horiz-adv-x="1181" 
d="M711 1524l172 -78l-314 -316l-102 58zM1034 963v-963h-164v133h-4q-124 -160 -330 -160t-334 150q-128 149 -128 359t127 358t333 149q206 0 332 -164h4v138h164zM879 487q-1 151 -89 251t-230 100t-230 -102t-88 -248t85 -255t233 -109t234 106q85 105 85 257z" />
    <glyph glyph-name="acircumflex" unicode="&#xe2;" horiz-adv-x="1181" 
d="M270 1237l320 272l323 -272l-118 -92l-205 174l-203 -174zM1034 963v-963h-164v133h-4q-124 -160 -330 -160t-334 150q-128 149 -128 359t127 358t333 149q206 0 332 -164h4v138h164zM879 487q-1 151 -89 251t-230 100t-230 -102t-88 -248t85 -255t233 -109t234 106
q85 105 85 257z" />
    <glyph glyph-name="atilde" unicode="&#xe3;" horiz-adv-x="1181" 
d="M442 1446q72 0 166 -47q106 -47 131 -47q61 0 115 98l96 -78q-29 -72 -87 -119q-57 -47 -121 -47t-164 46t-140 46t-62 -24t-42 -70l-101 80q92 162 209 162zM1034 963v-963h-164v133h-4q-124 -160 -330 -160t-334 150q-128 149 -128 359t127 358t333 149q206 0 332 -164
h4v138h164zM879 487q-1 151 -89 251t-230 100t-230 -102t-88 -248t85 -255t233 -109t234 106q85 105 85 257z" />
    <glyph glyph-name="adieresis" unicode="&#xe4;" horiz-adv-x="1181" 
d="M793 1444q47 0 79 -32t31 -79q0 -47 -32 -79q-33 -32 -79 -32t-78 32t-32 79t32 79t79 32zM389 1444q45 0 78 -32t33 -79t-33 -79t-78 -32t-78 32t-32 79q0 47 32 79q33 32 78 32zM1034 963v-963h-164v133h-4q-124 -160 -330 -160t-334 150q-128 149 -128 359t127 358
t333 149q206 0 332 -164h4v138h164zM879 487q-1 151 -89 251t-230 100t-230 -102t-88 -248t85 -255t233 -109t234 106q85 105 85 257z" />
    <glyph glyph-name="aring" unicode="&#xe5;" horiz-adv-x="1181" 
d="M594 1427q-41 -1 -70 -29q-28 -28 -28 -68t28 -68t69 -29q40 0 69 29q28 30 28 70t-27 68q-28 27 -69 27zM594 1530q82 0 140 -58t58 -142q0 -83 -58 -141q-58 -59 -140 -59t-141 60t-60 141q-1 83 59 141t142 58zM1034 963v-963h-164v133h-4q-124 -160 -330 -160
t-334 150q-128 149 -128 359t127 358t333 149q206 0 332 -164h4v138h164zM879 487q-1 151 -89 251t-230 100t-230 -102t-88 -248t85 -255t233 -109t234 106q85 105 85 257z" />
    <glyph glyph-name="ae" unicode="&#xe6;" horiz-adv-x="1726" 
d="M735 520q-5 318 -259 318q-132 0 -312 -62v156q190 57 305 57t214 -50t142 -148q55 92 159 145t214 53q223 0 346 -158t113 -385h-758q2 -135 90 -228t225 -93q182 0 293 199l140 -80q-145 -270 -445 -271q-111 -1 -208 49t-160 142q-109 -190 -361 -191q-166 0 -290 78
t-124 233q0 154 120 236t278 82t278 -82zM467 457q-92 0 -168 -43t-76 -127t74 -123t171 -39t177 40t80 127t-83 126t-175 39zM1208 838q-106 0 -192 -74t-101 -178h576q-16 106 -96 179q-81 73 -187 73z" />
    <glyph glyph-name="ccedilla" unicode="&#xe7;" horiz-adv-x="974" 
d="M664 -109l-234 -299l-115 58l197 303zM870 676h-4q-127 162 -299 162q-145 0 -242 -104t-97 -252t91 -252q92 -104 240 -105q186 0 313 166h5v-219q-145 -98 -306 -99q-219 -1 -365 145t-146 361t150 363q151 148 363 147q162 0 297 -96v-217z" />
    <glyph glyph-name="egrave" unicode="&#xe8;" horiz-adv-x="1062" 
d="M244 1446l172 78l243 -336l-102 -58zM539 838q-107 0 -193 -74t-100 -178h575q-16 106 -96 179t-186 73zM553 125q182 0 293 199l139 -80q-145 -270 -444 -271q-211 1 -341 143t-130 359t125 365t345 149q220 0 342 -159t111 -384h-755q2 -135 90 -228t225 -93z" />
    <glyph glyph-name="eacute" unicode="&#xe9;" horiz-adv-x="1062" 
d="M651 1524l172 -78l-313 -316l-102 58zM539 838q-107 0 -193 -74t-100 -178h575q-16 106 -96 179t-186 73zM553 125q182 0 293 199l139 -80q-145 -270 -444 -271q-211 1 -341 143t-130 359t125 365t345 149q220 0 342 -159t111 -384h-755q2 -135 90 -228t225 -93z" />
    <glyph glyph-name="ecircumflex" unicode="&#xea;" horiz-adv-x="1062" 
d="M211 1237l319 272l324 -272l-119 -92l-205 174l-202 -174zM539 838q-107 0 -193 -74t-100 -178h575q-16 106 -96 179t-186 73zM553 125q182 0 293 199l139 -80q-145 -270 -444 -271q-211 1 -341 143t-130 359t125 365t345 149q220 0 342 -159t111 -384h-755
q2 -135 90 -228t225 -93z" />
    <glyph glyph-name="edieresis" unicode="&#xeb;" horiz-adv-x="1062" 
d="M733 1444q45 0 78 -32t33 -79t-33 -79t-78 -32t-78 32t-32 79q0 47 32 79q33 32 78 32zM330 1444q47 0 79 -32q31 -32 31 -79t-32 -79t-78 -32q-47 0 -79 32t-32 79t32 79t79 32zM539 838q-107 0 -193 -74t-100 -178h575q-16 106 -96 179t-186 73zM553 125q182 0 293 199
l139 -80q-145 -270 -444 -271q-211 1 -341 143t-130 359t125 365t345 149q220 0 342 -159t111 -384h-755q2 -135 90 -228t225 -93z" />
    <glyph glyph-name="igrave" unicode="&#xec;" horiz-adv-x="536" 
d="M10 1446l172 78l244 -336l-102 -58zM350 963v-963h-164v963h164z" />
    <glyph glyph-name="iacute" unicode="&#xed;" horiz-adv-x="536" 
d="M356 1524l172 -78l-313 -316l-102 58zM350 963v-963h-164v963h164z" />
    <glyph glyph-name="icircumflex" unicode="&#xee;" horiz-adv-x="536" 
d="M-53 1237l319 272l324 -272l-119 -92l-205 174l-203 -174zM350 963v-963h-164v963h164z" />
    <glyph glyph-name="idieresis" unicode="&#xef;" horiz-adv-x="536" 
d="M471 1444q45 0 78 -32t33 -79t-33 -79t-78 -32t-78 32t-33 79t33 79t78 32zM68 1444q46 0 78 -32t32 -79t-32 -79t-78 -32t-79 32q-32 32 -32 79t32 79t79 32zM350 963v-963h-164v963h164z" />
    <glyph glyph-name="eth" unicode="&#xf0;" horiz-adv-x="1148" 
d="M581 127q147 0 241 104q94 105 96 251q0 146 -96 252t-244 106t-245 -102t-97 -257q0 -154 99 -254t246 -100zM575 -25q-211 1 -358 149t-147 353t138 357t351 151q182 0 320 -131q-88 250 -347 489l-272 -182l-80 84l266 178q-100 89 -256 185l91 94q180 -117 280 -201
l283 189l82 -84l-275 -185q170 -162 253 -305q121 -211 148 -344q63 -300 -18 -493t-284 -271q-86 -33 -175 -33z" />
    <glyph glyph-name="ntilde" unicode="&#xf1;" horiz-adv-x="1081" 
d="M391 1446q72 0 166 -47q106 -47 131 -47q61 0 115 98l96 -78q-29 -72 -87 -119t-122 -47t-164 46t-140 46t-62 -24t-41 -70l-101 80q92 162 209 162zM319 963v-117h5q104 143 281 143q177 -1 249 -113t72 -305v-571h-164v543q0 133 -24 191t-67 81q-44 23 -111 23
q-180 0 -221 -174q-18 -76 -20 -207v-457h-163v963h163z" />
    <glyph glyph-name="ograve" unicode="&#xf2;" horiz-adv-x="1150" 
d="M287 1446l172 78l243 -336l-102 -58zM575 838q-149 0 -245 -104t-96 -253q0 -150 96 -253t246 -103t245 103q96 103 97 253q0 149 -96 253t-247 104zM575 -27q-211 -1 -358 147t-147 360t147 360t358 149q211 0 359 -148q148 -149 147 -361q1 -212 -147 -360t-359 -147z
" />
    <glyph glyph-name="oacute" unicode="&#xf3;" horiz-adv-x="1150" 
d="M694 1524l172 -78l-313 -316l-102 58zM575 838q-149 0 -245 -104t-96 -253q0 -150 96 -253t246 -103t245 103q96 103 97 253q0 149 -96 253t-247 104zM575 -27q-211 -1 -358 147t-147 360t147 360t358 149q211 0 359 -148q148 -149 147 -361q1 -212 -147 -360t-359 -147z
" />
    <glyph glyph-name="ocircumflex" unicode="&#xf4;" horiz-adv-x="1150" 
d="M254 1237l319 272l324 -272l-119 -92l-205 174l-202 -174zM575 838q-149 0 -245 -104t-96 -253q0 -150 96 -253t246 -103t245 103q96 103 97 253q0 149 -96 253t-247 104zM575 -27q-211 -1 -358 147t-147 360t147 360t358 149q211 0 359 -148q148 -149 147 -361
q1 -212 -147 -360t-359 -147z" />
    <glyph glyph-name="otilde" unicode="&#xf5;" horiz-adv-x="1150" 
d="M426 1446q72 0 166 -47q106 -47 131 -47q61 0 115 98l96 -78q-29 -72 -87 -119q-57 -47 -121 -47t-164 46t-141 46q-40 0 -62 -24t-42 -70l-100 80q92 162 209 162zM575 838q-149 0 -245 -104t-96 -253q0 -150 96 -253t246 -103t245 103q96 103 97 253q0 149 -96 253
t-247 104zM575 -27q-211 -1 -358 147t-147 360t147 360t358 149q211 0 359 -148q148 -149 147 -361q1 -212 -147 -360t-359 -147z" />
    <glyph glyph-name="odieresis" unicode="&#xf6;" horiz-adv-x="1150" 
d="M778 1444q45 0 78 -32t33 -79t-33 -79t-78 -32t-78 32t-32 79q0 47 32 79q33 32 78 32zM375 1444q47 0 79 -32t32 -79t-32 -79t-79 -32t-79 32t-32 79t32 79t79 32zM575 838q-149 0 -245 -104t-96 -253q0 -150 96 -253t246 -103t245 103q96 103 97 253q0 149 -96 253
t-247 104zM575 -27q-211 -1 -358 147t-147 360t147 360t358 149q211 0 359 -148q148 -149 147 -361q1 -212 -147 -360t-359 -147z" />
    <glyph glyph-name="divide" unicode="&#xf7;" 
d="M631 1028q47 0 82 -35t35 -83t-35 -82t-82 -34t-82 34t-35 82t35 83t82 35zM631 254q47 0 82 -35t35 -83t-35 -82t-82 -34t-82 34t-35 82t35 83t82 35zM135 444v160h991v-160h-991z" />
    <glyph glyph-name="oslash" unicode="&#xf8;" horiz-adv-x="1150" 
d="M562 989q198 0 333 -112l135 135l80 -78l-137 -137q109 -135 109 -332t-148 -344q-147 -147 -342 -147t-332 108l-139 -139l-80 80l139 139q-111 137 -110 317q0 213 147 361t345 149zM590 125q135 0 231 103q96 102 96 236t-59 218l-487 -489q84 -68 219 -68zM560 838
q-136 0 -230 -104q-96 -104 -96 -236t59 -224l491 492q-88 72 -224 72z" />
    <glyph glyph-name="ugrave" unicode="&#xf9;" horiz-adv-x="1048" 
d="M236 1446l172 78l243 -336l-102 -58zM307 963v-537q0 -178 53 -239t164 -62q159 0 198 126q19 61 19 175v537h164v-555q0 -434 -381 -435q-381 0 -381 435v555h164z" />
    <glyph glyph-name="uacute" unicode="&#xfa;" horiz-adv-x="1048" 
d="M643 1524l172 -78l-313 -316l-103 58zM307 963v-537q0 -178 53 -239t164 -62q159 0 198 126q19 61 19 175v537h164v-555q0 -434 -381 -435q-381 0 -381 435v555h164z" />
    <glyph glyph-name="ucircumflex" unicode="&#xfb;" horiz-adv-x="1048" 
d="M203 1237l319 272l324 -272l-119 -92l-205 174l-203 -174zM307 963v-537q0 -178 53 -239t164 -62q159 0 198 126q19 61 19 175v537h164v-555q0 -434 -381 -435q-381 0 -381 435v555h164z" />
    <glyph glyph-name="udieresis" unicode="&#xfc;" horiz-adv-x="1048" 
d="M727 1444q47 0 79 -32t32 -79t-32 -79t-79 -32t-79 32t-32 79t32 79t79 32zM324 1444q46 0 78 -32t32 -79t-33 -79t-77 -32t-78 32q-33 32 -33 79t33 79t78 32zM307 963v-537q0 -178 53 -239t164 -62q159 0 198 126q19 61 19 175v537h164v-555q0 -434 -381 -435
q-381 0 -381 435v555h164z" />
    <glyph glyph-name="yacute" unicode="&#xfd;" horiz-adv-x="1019" 
d="M670 1524l172 -78l-314 -316l-102 58zM438 90l-442 873h190l340 -691l312 691h186l-711 -1504h-186z" />
    <glyph glyph-name="thorn" unicode="&#xfe;" horiz-adv-x="1181" 
d="M940 487q0 151 -88 251t-231 100q-142 0 -230 -102t-88 -248t85 -255q86 -109 234 -109t233 106q85 105 85 257zM311 1690v-865h4q123 164 330 164q207 -1 335 -151t128 -361t-126 -357t-336 -146t-331 161h-4v-676h-164v2231h164z" />
    <glyph glyph-name="ydieresis" unicode="&#xff;" horiz-adv-x="1019" 
d="M723 1444q47 0 79 -32t32 -79t-32 -79t-79 -32t-79 32t-32 79t32 79t79 32zM319 1444q45 0 78 -32t33 -79t-33 -79t-78 -32t-77 32t-33 79q1 47 33 79t77 32zM438 90l-442 873h190l340 -691l312 691h186l-711 -1504h-186z" />
    <glyph glyph-name="dotlessi" unicode="&#x131;" horiz-adv-x="536" 
d="M350 963v-963h-164v963h164z" />
    <glyph glyph-name="Lslash" unicode="&#x141;" horiz-adv-x="768" 
d="M156 0v653l-156 -100v164l156 100v727h172v-614l266 172v-164l-266 -172v-606h426v-160h-598z" />
    <glyph glyph-name="lslash" unicode="&#x142;" horiz-adv-x="528" 
d="M182 0v758l-151 -101v146l151 100v787h164v-676l152 100v-145l-152 -101v-868h-164z" />
    <glyph glyph-name="OE" unicode="&#x152;" horiz-adv-x="2437" 
d="M883 1411q-265 0 -449 -187q-184 -186 -184 -450t185 -452t447 -188t448 188t186 451t-184 451t-449 187zM1493 0v297h-4q-100 -154 -261 -240t-345 -84q-332 1 -569 233t-236 564q0 332 236 566q237 234 569 235q182 0 343 -87t263 -243h4v303h807v-160h-635v-458h616
v-160h-616v-606h635v-160h-807z" />
    <glyph glyph-name="oe" unicode="&#x153;" horiz-adv-x="1925" 
d="M580 838q-150 0 -246 -104t-96 -253q0 -150 96 -253t246 -103t246 103t96 253q0 149 -96 253t-246 104zM1403 838q-107 0 -193 -74t-100 -178h576q-16 106 -96 179t-187 73zM1411 125q182 0 293 199l139 -80q-145 -270 -444 -271q-121 1 -233 63t-165 167
q-61 -109 -179 -169t-247 -61q-211 -1 -358 147t-147 360t147 360t358 149q137 -4 253 -65t173 -168q55 109 161 169t233 64q223 0 347 -159t113 -384h-759q2 -135 90 -228t225 -93z" />
    <glyph glyph-name="Scaron" unicode="&#x160;" horiz-adv-x="1144" 
d="M915 1948l-319 -273l-324 273l119 92l205 -174l203 174zM590 1411q-104 0 -180 -68t-76 -169t84 -157q64 -45 157 -87l103 -45q162 -72 266 -164q105 -93 105 -282q1 -189 -141 -327t-336 -138t-323 109q-130 110 -167 290l168 47q16 -121 102 -204t210 -83t219 87
t95 199t-56 181q-48 58 -228 141l-94 41q-164 74 -250 160t-86 248t127 272t305 109q130 -1 234 -63t165 -177l-137 -88q-96 168 -266 168z" />
    <glyph glyph-name="scaron" unicode="&#x161;" horiz-adv-x="817" 
d="M731 1417l-319 -272l-324 272l119 92l205 -174l202 174zM413 838q-44 0 -81 -31t-37 -74q1 -43 21 -61t31 -28t38 -23t39 -19t47 -20q145 -58 207 -121t63 -186q0 -123 -95 -213t-223 -89q-128 0 -218 65t-129 179l145 62q35 -76 78 -115t115 -39t116 41t43 103
q0 105 -153 166q-62 25 -126 55t-110 86t-45 141q0 119 84 195t203 77q82 0 152 -50t104 -128l-137 -72q-18 41 -53 70t-79 29z" />
    <glyph glyph-name="Ydieresis" unicode="&#x178;" horiz-adv-x="1214" 
d="M834 1974q46 0 78 -32t32 -78q0 -45 -32 -78t-78 -33t-79 33q-32 33 -32 78q0 46 32 78t79 32zM430 1974q45 0 78 -32t33 -78q0 -45 -33 -78t-78 -33t-78 33t-33 78q0 46 33 78t78 32zM694 0h-172v664l-506 880h199l393 -688l393 688h199l-506 -880v-664z" />
    <glyph glyph-name="Zcaron" unicode="&#x17d;" horiz-adv-x="1200" 
d="M946 1948l-319 -273l-324 273l119 92l205 -174l202 174zM1135 160v-160h-1106l841 1384h-735v160h1022l-844 -1384h822z" />
    <glyph glyph-name="zcaron" unicode="&#x17e;" horiz-adv-x="1062" 
d="M885 1417l-320 -272l-323 272l118 92l205 -174l203 174zM1016 152v-152h-996l695 811h-565v152h894l-692 -811h664z" />
    <glyph glyph-name="florin" unicode="&#x192;" 
d="M969 1559q-96 0 -131 -66q-23 -47 -54 -186l-51 -279h246l-23 -139h-247l-119 -643q-49 -276 -111 -369q-113 -164 -366 -164l-103 8l33 154l70 -2q124 0 203 74q30 29 53 89t30 99q8 39 23 119l117 635h-168l22 139h172l58 324q31 174 104 269q74 95 236 95
q73 1 139 -26l-31 -154q-51 23 -102 23z" />
    <glyph glyph-name="circumflex" unicode="&#x2c6;" horiz-adv-x="962" 
d="M160 1237l319 272l324 -272l-119 -92l-205 174l-203 -174z" />
    <glyph glyph-name="caron" unicode="&#x2c7;" horiz-adv-x="962" 
d="M803 1417l-320 -272l-323 272l119 92l204 -174l203 174z" />
    <glyph glyph-name="breve" unicode="&#x2d8;" horiz-adv-x="993" 
d="M498 1327q142 0 194 139h142q-16 -126 -112 -202t-223 -76q-129 0 -225 76t-112 202h141q53 -139 195 -139z" />
    <glyph glyph-name="dotaccent" unicode="&#x2d9;" horiz-adv-x="733" 
d="M367 1466q47 0 79 -32t31 -78q0 -45 -32 -78q-33 -33 -79 -33t-78 33t-32 78q0 46 32 78t79 32z" />
    <glyph glyph-name="ring" unicode="&#x2da;" horiz-adv-x="716" 
d="M360 1427q-42 -1 -70 -29t-28 -68t29 -68t69 -29q40 0 68 29q29 30 29 70t-28 68t-69 27zM360 1530q82 0 140 -58t59 -142q0 -83 -58 -141q-59 -59 -141 -59t-141 60t-59 141q0 83 59 141t141 58z" />
    <glyph glyph-name="ogonek" unicode="&#x2db;" horiz-adv-x="690" 
d="M461 0v-4q-164 -111 -164 -205q0 -45 33 -69t88 -24t114 38l-20 -135q-61 -31 -140 -31t-146 52t-66 138q0 136 170 240h131z" />
    <glyph glyph-name="tilde" unicode="&#x2dc;" horiz-adv-x="1036" 
d="M369 1446q72 0 166 -47q106 -47 131 -47q61 0 114 98l97 -78q-29 -72 -87 -119t-122 -47t-164 46t-140 46t-62 -24t-42 -70l-100 80q92 162 209 162z" />
    <glyph glyph-name="hungarumlaut" unicode="&#x2dd;" horiz-adv-x="956" 
d="M778 1520l-194 -326l-82 23l121 331zM457 1520l-195 -326l-82 23l121 331z" />
    <glyph glyph-name="mu" unicode="&#x3bc;" horiz-adv-x="1048" 
d="M307 963v-537q0 -178 53 -239t164 -62q159 0 198 126q19 61 19 175v537h164v-555q0 -434 -381 -435q-117 0 -217 97v-611h-164v1504h164z" />
    <glyph glyph-name="endash" unicode="&#x2013;" horiz-adv-x="1024" 
d="M0 569h1024v-151h-1024v151z" />
    <glyph glyph-name="emdash" unicode="&#x2014;" horiz-adv-x="2048" 
d="M266 569h1516v-151h-1516v151z" />
    <glyph glyph-name="quoteleft" unicode="&#x2018;" horiz-adv-x="591" 
d="M276 993l-151 56l233 522l111 -43z" />
    <glyph glyph-name="quoteright" unicode="&#x2019;" horiz-adv-x="591" 
d="M315 1571l152 -55l-234 -523l-110 43z" />
    <glyph glyph-name="quotesinglbase" unicode="&#x201a;" horiz-adv-x="591" 
d="M317 225l152 -53l-233 -524l-111 45z" />
    <glyph glyph-name="quotedblleft" unicode="&#x201c;" horiz-adv-x="935" 
d="M276 993l-151 56l233 522l111 -43zM621 993l-152 56l233 522l111 -43z" />
    <glyph glyph-name="quotedblright" unicode="&#x201d;" horiz-adv-x="935" 
d="M662 1571l151 -55l-233 -523l-111 43zM317 1571l152 -55l-233 -523l-111 43z" />
    <glyph glyph-name="quotedblbase" unicode="&#x201e;" horiz-adv-x="950" 
d="M676 225l151 -53l-233 -524l-111 45zM317 225l152 -53l-233 -524l-111 45z" />
    <glyph glyph-name="dagger" unicode="&#x2020;" horiz-adv-x="1212" 
d="M522 1544h168v-379h342v-159h-342v-1340h-168v1340h-342v159h342v379z" />
    <glyph glyph-name="daggerdbl" unicode="&#x2021;" horiz-adv-x="1212" 
d="M522 1544h168v-379h342v-159h-342v-744h342v-160h-342v-436h-168v436h-342v160h342v744h-342v159h342v379z" />
    <glyph glyph-name="bullet" unicode="&#x2022;" horiz-adv-x="1212" 
d="M606 387q-160 0 -272 113q-112 114 -114 274q-1 160 112 273q112 113 274 113t275 -114q113 -112 113 -273t-114 -273t-274 -113z" />
    <glyph glyph-name="ellipsis" unicode="&#x2026;" horiz-adv-x="2048" 
d="M1704 203q47 0 81 -33t34 -80t-34 -82t-81 -35t-81 35t-34 82t34 80t81 33zM1024 203q47 0 81 -33t34 -80t-34 -82t-81 -35t-81 35t-34 82t34 80t81 33zM344 203q47 0 81 -33t34 -80t-34 -82t-81 -35t-81 35t-34 82t34 80t81 33z" />
    <glyph glyph-name="perthousand" unicode="&#x2030;" horiz-adv-x="2482" 
d="M2068 516q-86 0 -149 -60t-63 -146t62 -145q64 -61 150 -61t150 60t63 146q0 85 -63 146q-64 60 -150 60zM2068 647q140 0 242 -98q102 -99 102 -239t-100 -238q-102 -98 -244 -98t-242 96q-101 98 -102 239q0 141 102 239t242 99zM1229 516q-85 0 -149 -60t-64 -146
t63 -145q63 -61 149 -61t150 60t64 146t-64 146t-149 60zM1229 647q141 0 242 -98q101 -99 101 -239t-100 -238q-102 -98 -243 -98t-243 96q-102 98 -101 239q0 141 101 240q102 98 243 98zM1227 1571l82 -49l-893 -1549l-88 54zM414 1440q-86 0 -150 -60t-63 -146
q0 -85 63 -145q64 -61 150 -61t149 60t63 146t-62 146q-64 60 -150 60zM414 1571q141 0 242 -98q102 -99 102 -239t-102 -238t-242 -99q-141 0 -243 97q-101 96 -101 238t101 241q102 98 243 98z" />
    <glyph glyph-name="guilsinglleft" unicode="&#x2039;" horiz-adv-x="675" 
d="M260 492l277 -340l-109 -84l-344 424l344 436l109 -86z" />
    <glyph glyph-name="guilsinglright" unicode="&#x203a;" horiz-adv-x="675" 
d="M139 152l277 340l-277 350l109 86l344 -436l-344 -424z" />
    <glyph glyph-name="fraction" unicode="&#x2044;" horiz-adv-x="329" 
d="M569 1571l90 -49l-899 -1549l-90 50z" />
    <glyph glyph-name="Euro" unicode="&#x20ac;" 
d="M805 133q125 0 196 25q57 16 168 90v-185q-152 -88 -358 -88q-287 0 -453 164t-213 432h-147l33 111h100q-2 27 -2 84v43h-131l33 111h108q39 285 209 468t463 183q244 0 399 -131l-41 -154q-95 74 -165 100t-203 25q-211 0 -333 -139t-157 -352h762l-35 -111h-737v-37
q0 -29 4 -90h701l-35 -111h-649q39 -195 153 -307q125 -131 330 -131z" />
    <glyph glyph-name="trademark" unicode="&#x2122;" horiz-adv-x="1925" 
d="M772 1544v-123h-287v-739h-123v739h-288v123h698zM1853 1544v-862h-122v739h-5l-294 -739h-80l-287 739h-4v-739h-123v862h207l248 -620l256 620h204z" />
    <glyph glyph-name="minus" unicode="&#x2212;" 
d="M135 444v160h991v-160h-991z" />
    <glyph glyph-name="fi" unicode="&#xfb01;" horiz-adv-x="1062" 
d="M795 1442q47 0 82 -35t35 -83t-36 -82q-34 -34 -81 -34t-82 34t-35 82t35 83t82 35zM877 963v-963h-164v963h164zM309 811v-811h-164v811h-90v152h90v383q0 180 43 249q76 121 248 121q51 0 117 -20v-166q-155 52 -215 -21q-25 -28 -27 -92t-2 -129v-325h244v-152h-244z
" />
    <glyph glyph-name="fl" unicode="&#xfb02;" horiz-adv-x="1026" 
d="M309 811v-811h-164v811h-90v152h90v383q0 180 43 249q76 121 248 121q51 0 117 -20v-166q-155 52 -215 -21q-25 -28 -27 -92t-2 -129v-325h244v-152h-244zM877 1690v-1690h-164v1690h164z" />
    <glyph glyph-name="hyphen" horiz-adv-x="425" 
d="M4 569h420v-151h-420v151z" />
    <glyph glyph-name="oldcurrency" 
d="M631 233q159 0 273 113q114 114 117 272t-109 266t-281 111q-168 -3 -281 -111q-114 -108 -110 -267t118 -271t273 -113zM1153 614q0 -156 -109 -323l82 -82l-73 -74l-86 86q-164 -119 -336 -119t-336 119l-86 -86l-74 74l82 82q-109 167 -109 323t109 324l-82 82l74 74
l86 -86q164 118 336 118t336 -118l86 86l73 -74l-82 -82q109 -168 109 -324z" />
    </font>
</defs>
</svg>
